<?xml version="1.0" encoding="iso-8859-1"?>
<!-- Generator: Adobe Illustrator 19.0.0, SVG Export Plug-In . SVG Version: 6.00 Build 0)  -->
<svg version="1.1" id="Capa_1" xmlns="http://www.w3.org/2000/svg" xmlns:xlink="http://www.w3.org/1999/xlink" x="0px" y="0px"
	 viewBox="0 0 512 512" style="enable-background:new 0 0 512 512;" xml:space="preserve">
<path style="fill:#8CE0FF;" d="M256.005,10.039c0,0,147.576,262.837,147.576,344.335c0,81.508-66.078,147.587-147.576,147.587
	c-81.508,0-147.587-66.078-147.587-147.587C108.419,272.876,256.005,10.039,256.005,10.039z"/>
<path d="M256.005,512c86.91,0,157.616-70.711,157.616-157.626c0-83.169-142.784-338.425-148.861-349.25
	C262.981,1.96,259.634,0,256.005,0c-3.629,0-6.976,1.959-8.754,5.124c-6.079,10.825-148.872,266.081-148.872,349.25
	C98.379,441.289,169.091,512,256.005,512z M191.2,156.118c25.717-52.907,51.686-101.293,64.805-125.297
	c13.116,24.004,39.084,72.389,64.8,125.297c60.118,123.683,72.737,176.081,72.737,198.256c0,75.844-61.699,137.547-137.537,137.547
	c-75.844,0-137.547-61.703-137.547-137.547C118.458,332.198,131.077,279.801,191.2,156.118z"/>
<path d="M256.002,456.78c19.479,0,38.444-5.517,54.843-15.953c15.944-10.147,28.772-24.456,37.099-41.379
	c2.448-4.975,0.399-10.992-4.576-13.44c-4.975-2.45-10.993-0.399-13.441,4.576c-13.996,28.446-42.323,46.118-73.927,46.118
	c-5.544,0-10.039,4.496-10.039,10.039C245.962,452.285,250.457,456.78,256.002,456.78z"/>
<path d="M348.032,373.793c12.919,0,12.941-20.078,0-20.078C335.111,353.715,335.09,373.793,348.032,373.793z"/>
<g>
</g>
<g>
</g>
<g>
</g>
<g>
</g>
<g>
</g>
<g>
</g>
<g>
</g>
<g>
</g>
<g>
</g>
<g>
</g>
<g>
</g>
<g>
</g>
<g>
</g>
<g>
</g>
<g>
</g>
</svg>
